<?xml version="1.0" encoding="utf-8"?>
<!-- Generator: Adobe Illustrator 17.1.0, SVG Export Plug-In . SVG Version: 6.00 Build 0)  -->
<!DOCTYPE svg PUBLIC "-//W3C//DTD SVG 1.1//EN" "http://www.w3.org/Graphics/SVG/1.1/DTD/svg11.dtd">
<svg version="1.1" id="Capa_1" xmlns="http://www.w3.org/2000/svg" xmlns:xlink="http://www.w3.org/1999/xlink" x="0px" y="0px"
	 viewBox="75.6 0 848.8 1000" enable-background="new 75.6 0 848.8 1000" xml:space="preserve">
<circle fill="#99CCCC" cx="500.6" cy="576.8" r="303.9"/>
<g>
	<path d="M587.5,160.3v-52.5h9.1c7.5,0,13.6-6.1,13.6-13.6V63.7c0-35.1-28.6-63.7-63.7-63.7h-93c-35.1,0-63.7,28.6-63.7,63.7v30.5
		c0,7.5,6.1,13.6,13.6,13.6h9.1v52.5c-62.3,13.1-119.6,39.9-168.7,77.2l-31.2-31.2c-10.9-10.9-28.7-10.9-39.7,0l-38.5,38.5
		c-5.3,5.3-8.2,12.3-8.2,19.8c0,7.5,2.9,14.5,8.2,19.8l30.7,30.7c-56.1,71.9-89.5,162.3-89.5,260.4C75.6,809.6,266,1000,500,1000
		s424.4-190.4,424.4-424.4C924.4,371.6,779.7,200.8,587.5,160.3z M417,63.7c0-20.1,16.4-36.5,36.5-36.5h93
		c20.1,0,36.5,16.4,36.5,36.5v16.9H417V63.7z M439.7,108.8h120.6v46.7c-19.7-2.8-39.8-4.3-60.3-4.3c-20.5,0-40.6,1.5-60.3,4.3V108.8
		z M153.7,265.3c-0.1-0.1-0.2-0.2-0.2-0.6c0-0.3,0.2-0.5,0.2-0.6l38.5-38.5c0.3-0.3,0.9-0.3,1.2,0l29.2,29.2
		c-14.2,12.3-27.5,25.5-40,39.5L153.7,265.3z M500,972.8c-219,0-397.2-178.2-397.2-397.2S281,178.4,500,178.4
		c219,0,397.2,178.2,397.2,397.2S719,972.8,500,972.8z"/>
	<path d="M513.3,399.1c-1.3-6.3-6.9-10.9-13.3-10.9c-6.5,0-12,4.5-13.3,10.9c0,0-35.8,170.2-35.8,176.5c0,27.1,22.1,49.2,49.2,49.2
		c27.1,0,49.2-22.1,49.2-49.2C549.2,569.3,513.3,399.1,513.3,399.1z M500,469.7l11.9,58.2c-3.8-1-7.8-1.5-11.9-1.5
		s-8.1,0.5-11.9,1.5L500,469.7z M500,597.6c-12.1,0-22-9.9-22-22s9.9-22,22-22s22,9.9,22,22S512.1,597.6,500,597.6z"/>
	<path d="M500,244.7c-182.5,0-330.9,148.5-330.9,330.9S317.5,906.6,500,906.6c182.5,0,330.9-148.5,330.9-330.9
		S682.5,244.7,500,244.7z M500,879.4c-167.5,0-303.7-136.3-303.7-303.7S332.5,271.9,500,271.9s303.7,136.3,303.7,303.7
		S667.5,879.4,500,879.4z"/>
	<path d="M500,786.3c-7.5,0-13.6,6.1-13.6,13.6v52.7c0,7.5,6.1,13.6,13.6,13.6c7.5,0,13.6-6.1,13.6-13.6v-52.7
		C513.6,792.4,507.5,786.3,500,786.3z"/>
	<path d="M500,365c7.5,0,13.6-6.1,13.6-13.6v-52.7c0-7.5-6.1-13.6-13.6-13.6c-7.5,0-13.6,6.1-13.6,13.6v52.7
		C486.4,358.9,492.5,365,500,365z"/>
	<path d="M331.8,724.6l-37.2,37.2c-5.3,5.3-5.3,13.9,0,19.2c2.7,2.7,6.1,4,9.6,4s7-1.3,9.6-4l37.2-37.2c5.3-5.3,5.3-13.9,0-19.2
		C345.7,719.3,337.1,719.3,331.8,724.6z"/>
	<path d="M658.6,430.7c3.6,0,7.1-1.4,9.6-4l37.2-37.2c5.3-5.3,5.3-13.9,0-19.2c-5.3-5.3-13.9-5.3-19.2,0l-36.8,36.9
		c-2.7,2.5-4.4,6-4.4,10C645,424.6,651.1,430.7,658.6,430.7z"/>
	<path d="M275.7,562h-52.7c-7.5,0-13.6,6.1-13.6,13.6c0,7.5,6.1,13.6,13.6,13.6h52.7c7.5,0,13.6-6.1,13.6-13.6S283.3,562,275.7,562z
		"/>
	<path d="M776.9,562h-52.7c-7.5,0-13.6,6.1-13.6,13.6c0,7.5,6.1,13.6,13.6,13.6h52.7c7.5,0,13.6-6.1,13.6-13.6
		C790.5,568.1,784.4,562,776.9,562z"/>
	<path d="M331.8,426.7c2.6,2.6,6,4,9.6,4h0c7.5,0,13.6-6.1,13.6-13.6c0-3.9-1.6-7.4-4.2-9.8l-37-37c-5.3-5.3-13.9-5.3-19.2,0
		c-5.3,5.3-5.3,13.9,0,19.2L331.8,426.7z"/>
	<path d="M668.2,724.6c-5.3-5.3-13.9-5.3-19.2,0c-5.3,5.3-5.3,13.9,0,19.2l37.2,37.2c2.7,2.7,6.1,4,9.6,4c3.5,0,7-1.3,9.6-4
		c5.3-5.3,5.3-13.9,0-19.2L668.2,724.6z"/>
</g>
</svg>
